#!OML:ASF X:\für Bonn\!DataBase\2005_08_10_Bjorn_Final\c3d\bjorn.ASF
:FULLY-SPECIFIED
:DEGREES
33
root -0.0170407 19.3232 4.21343 -177.47 0.269719 179.546
lowerback -11.4155 2.32356 2.13127
upperback 10.4004 3.91718 -1.79633
thorax 18.7541 2.54427 -2.10351
lowerneck -10.7528 -5.42906 0.72253
upperneck 21.0486 -8.7125 0.430874
head 8.29308 -4.3268 -0.910582
rclavicle -7.85199e-015 8.94531e-015
rhumerus -1202.53 -176.907 1195.1
rradius 17.2918
rwrist 30.0591
rhand -26.2861 17.8628
rfingers 7.12502
rthumb 0.269401 -12.1168
lclavicle -7.85199e-015 8.94531e-015
lhumerus -649.254 -6.73012 -655.367
lradius 15.0402
lwrist -35.2583
lhand -27.2519 -1.92766
lfingers 7.12502
lthumb -0.663415 28.051
rfemur -15.1248 -8.93855 13.0006
rtibia 27.1866
rfoot -11.7389 10.4232
rtoes -15.3456
lfemur -14.1869 4.9661 -17.529
ltibia 27.7778
lfoot -10.7105 -9.5027
ltoes -0.67646
34
root -0.0129754 19.3205 4.17331 -177.483 0.317599 179.544
lowerback -11.7349 2.29553 2.0547
upperback 10.2562 3.86746 -1.89611
thorax 18.782 2.50523 -2.18423
lowerneck -10.4337 -5.47758 1.00569
upperneck 21.2662 -8.91579 0.493437
head 8.29933 -4.41553 -0.952136
rclavicle 3.08116e-015 8.34896e-015
rhumerus -1201.47 -177.332 1199.24
rradius 18.1382
rwrist 28.9715
rhand -26.6637 18.3879
rfingers 7.12502
rthumb -0.0952703 -11.5918
lclavicle 3.08116e-015 8.34896e-015
lhumerus -647.659 -5.8794 -658.705
lradius 15.6906
lwrist -36.0568
lhand -27.3092 -1.55162
lfingers 7.12502
lthumb -0.718748 28.4269
rfemur -14.9866 -9.00306 12.9833
rtibia 27.2034
rfoot -11.8014 10.6023
rtoes -15.5757
lfemur -14.0141 4.89778 -17.5032
ltibia 27.7843
lfoot -10.8126 -9.38367
ltoes -0.663936
35
root -0.00991709 19.3172 4.13115 -177.483 0.386003 179.565
lowerback -12.0549 2.28912 2.04153
upperback 10.0888 3.83733 -2.02467
thorax 18.7894 2.48517 -2.32969
lowerneck -10.0651 -5.55929 1.36997
upperneck 21.4348 -9.17917 0.563713
head 8.27647 -4.5278 -1.00633
rclavicle 3.27995e-015 -1.66979e-014
rhumerus -1200.58 -177.323 1203.01
rradius 19.0055
rwrist 28.3908
rhand -26.8593 18.4547
rfingers 7.12502
rthumb -0.284195 -11.5249
lclavicle 3.27995e-015 -1.66979e-014
lhumerus -646.223 -4.68313 -661.134
lradius 16.177
lwrist -38.0706
lhand -27.558 -1.54937
lfingers 7.12502
lthumb -0.959064 28.4282
rfemur -14.8662 -9.04836 12.9826
rtibia 27.2342
rfoot -11.8647 10.8097
rtoes -15.6475
lfemur -13.8514 4.8278 -17.457
ltibia 27.8043
lfoot -10.9631 -9.27524
ltoes -0.642939
36
root -0.00621722 19.3136 4.08829 -177.481 0.460065 179.544
lowerback -12.3426 2.27249 1.97155
upperback 9.88675 3.79963 -2.15139
thorax 18.7238 2.4516 -2.44609
lowerneck -9.62255 -5.67055 1.67447
upperneck 21.6419 -9.48989 0.649867
head 8.25638 -4.67031 -1.04831
rclavicle 1.35174e-014 2.18663e-014
rhumerus -1199.87 -177.09 1206.65
rradius 19.9346
rwrist 28.1195
rhand -26.7055 17.9749
rfingers 7.12502
rthumb -0.135627 -12.0048
lclavicle 1.35174e-014 2.18663e-014
lhumerus -645.005 -3.3799 -663.587
lradius 16.7136
lwrist -40.1015
lhand -28.0416 -1.33671
lfingers 7.12502
lthumb -1.42612 28.6383
rfemur -14.7546 -9.10827 12.9419
rtibia 27.2765
rfoot -11.9519 10.9949
rtoes -15.9322
lfemur -13.7055 4.73253 -17.4647
ltibia 27.8314
lfoot -11.1246 -9.08
ltoes -0.935171
37
root -0.00159093 19.3096 4.0434 -177.481 0.542444 179.566
lowerback -12.5944 2.26086 1.93583
upperback 9.6588 3.75914 -2.27704
thorax 18.6028 2.41966 -2.58337
lowerneck -9.0922 -5.79214 2.05851
upperneck 21.7391 -9.81491 0.736407
head 8.1792 -4.81709 -1.0959
rclavicle 5.36719e-014 2.38542e-015
rhumerus -1199.38 -176.693 1210.26
rradius 20.9124
rwrist 27.7372
rhand -26.3176 17.6168
rfingers 7.12502
rthumb 0.239007 -12.3628
lclavicle 5.36719e-014 2.38542e-015
lhumerus -643.975 -1.97842 -666.089
lradius 17.3035
lwrist -42.0933
lhand -28.3248 -1.15792
lfingers 7.12502
lthumb -1.6996 28.8151
rfemur -14.6339 -9.09966 12.9461
rtibia 27.3271
rfoot -12.0475 11.1706
rtoes -16.0294
lfemur -13.5462 4.63804 -17.4129
ltibia 27.8637
lfoot -11.2937 -8.91411
ltoes -0.991348
38
root 0.00193857 19.3059 3.99864 -177.459 0.612063 179.584
lowerback -12.8094 2.23274 1.89167
upperback 9.37861 3.68722 -2.39099
thorax 18.385 2.3671 -2.71395
lowerneck -8.37745 -5.94631 2.35647
upperneck 21.7302 -10.1725 0.881438
head 8.04033 -4.9886 -1.10115
rclavicle 4.77083e-015 -1.90833e-014
rhumerus -1199.09 -176.13 1213.62
rradius 21.788
rwrist 27.5011
rhand -25.9566 17.6462
rfingers 7.12502
rthumb 0.587696 -12.3327
lclavicle 4.77083e-015 -1.90833e-014
lhumerus -643.233 -0.521743 -669.094
lradius 17.9625
lwrist -43.4859
lhand -28.4074 -0.950835
lfingers 7.12502
lthumb -1.77934 29.0215
rfemur -14.542 -9.13193 12.9534
rtibia 27.3756
rfoot -12.1481 11.3442
rtoes -16.2738
lfemur -13.4312 4.4701 -17.3732
ltibia 27.903
lfoot -11.4332 -8.71026
ltoes -0.968598
39
root 0.00675295 19.3015 3.95201 -177.458 0.698135 179.586
lowerback -12.9696 2.20146 1.79324
upperback 9.06441 3.61894 -2.49752
thorax 18.0831 2.30673 -2.80589
lowerneck -7.53582 -6.12646 2.6032
upperneck 21.6726 -10.5711 1.09713
head 7.8698 -5.18534 -1.07012
rclavicle 1.15295e-014 5.96354e-015
rhumerus -1199.01 -175.484 1216.8
rradius 22.6974
rwrist 27.2318
rhand -25.5557 17.679
rfingers 7.12502
rthumb 0.974891 -12.2985
lclavicle 1.15295e-014 5.96354e-015
lhumerus -642.833 0.929978 -673.068
lradius 18.7348
lwrist -43.6984
lhand -28.3438 -0.521641
lfingers 7.12502
lthumb -1.718 29.4512
rfemur -14.4258 -9.16088 12.9392
rtibia 27.436
rfoot -12.2588 11.5377
rtoes -16.5322
lfemur -13.2769 4.40601 -17.351
ltibia 27.9397
lfoot -11.6169 -8.54493
ltoes -1.29977
40
root 0.0116497 19.2984 3.90558 -177.435 0.779036 179.628
lowerback -13.1061 2.17924 1.76168
upperback 8.73072 3.55075 -2.61124
thorax 17.7487 2.255 -2.94365
lowerneck -6.63733 -6.33877 2.76287
upperneck 21.5711 -11.0297 1.45577
head 7.68958 -5.41072 -0.978593
rclavicle -9.93923e-015 2.38542e-015
rhumerus -1199.09 -174.654 1219.72
rradius 23.5905
rwrist 27.1411
rhand -25.1781 17.838
rfingers 7.12502
rthumb 1.3396 -12.1375
lclavicle -9.93923e-015 2.38542e-015
lhumerus -642.708 2.41575 -677.488
lradius 19.5596
lwrist -43.0893
lhand -28.1498 0.263821
lfingers 7.12502
lthumb -1.53055 30.2381
rfemur -14.339 -9.14381 12.9715
rtibia 27.4968
rfoot -12.3359 11.7019
rtoes -16.524
lfemur -13.1491 4.26986 -17.2807
ltibia 27.9793
lfoot -11.7864 -8.35951
ltoes -1.31855
41
root 0.0162628 19.2937 3.85694 -177.4 0.886129 179.651
lowerback -13.2635 2.12847 1.66159
upperback 8.39561 3.45103 -2.68118
thorax 17.4169 2.17626 -2.99926
lowerneck -5.73297 -6.55853 2.84756
upperneck 21.4926 -11.4798 1.75565
head 7.5185 -5.64716 -0.891077
rclavicle 1.25234e-014 -5.56597e-015
rhumerus -1199.24 -173.724 1222.45
rradius 24.4794
rwrist 27.258
rhand -24.8501 18.0322
rfingers 7.12502
rthumb 1.65635 -11.9411
lclavicle 1.25234e-014 -5.56597e-015
lhumerus -642.9 4.09126 -681.528
lradius 20.3601
lwrist -42.6152
lhand -27.5643 0.86824
lfingers 7.12502
lthumb -0.965147 30.8458
rfemur -14.265 -9.19938 12.9842
rtibia 27.5625
rfoot -12.4308 11.9382
rtoes -16.6508
lfemur -13.0201 4.168 -17.2412
ltibia 28.021
lfoot -11.9877 -8.13972
ltoes -1.63437
42
root 0.0214968 19.2897 3.80825 -177.32 0.957261 179.67
lowerback -13.4282 2.08053 1.56781
upperback 8.05502 3.36012 -2.76498
thorax 17.088 2.1049 -3.0704
lowerneck -4.88029 -6.80326 3.0299
upperneck 21.4217 -11.9638 1.99228
head 7.35195 -5.89949 -0.840868
rclavicle 2.38542e-015 1.59028e-015
rhumerus -1199.56 -172.593 1225.03
rradius 25.3533
rwrist 27.6425
rhand -24.4883 18.1763
rfingers 7.12502
rthumb 2.00575 -11.794
lclavicle 2.38542e-015 1.59028e-015
lhumerus -643.15 5.92097 -684.553
lradius 20.9313
lwrist -43.2958
lhand -27.5585 0.84294
lfingers 7.12502
lthumb -0.959537 30.8205
rfemur -14.219 -9.15534 12.9985
rtibia 27.6132
rfoot -12.555 12.0394
rtoes -16.7219
lfemur -12.9414 3.98749 -17.2022
ltibia 28.0607
lfoot -12.1693 -7.92342
ltoes -1.62916
43
root 0.0263082 19.2859 3.75797 -177.23 1.06217 179.712
lowerback -13.6084 2.02414 1.47121
upperback 7.72953 3.25385 -2.80145
thorax 16.7852 2.02333 -3.0883
lowerneck -4.05491 -7.05942 3.27403
upperneck 21.3445 -12.4279 2.06718
head 7.1748 -6.15171 -0.846288
rclavicle -4.37326e-015 -4.13472e-014
rhumerus -1199.97 -171.397 1227.63
rradius 26.2029
rwrist 28.0651
rhand -24.0331 18.0891
rfingers 7.12502
rthumb 2.44541 -11.8766
lclavicle -4.37326e-015 -4.13472e-014
lhumerus -643.523 7.88281 -686.928
lradius 21.3845
lwrist -44.5038
lhand -27.9304 0.650696
lfingers 7.12502
lthumb -1.3187 30.6264
rfemur -14.1987 -9.19034 13.0439
rtibia 27.663
rfoot -12.625 12.2432
rtoes -16.7541
lfemur -12.867 3.8967 -17.1453
ltibia 28.0946
lfoot -12.3612 -7.71113
ltoes -1.84552
44
root 0.0314254 19.2853 3.7065 -177.103 1.16236 179.795
lowerback -13.8275 1.96653 1.42644
upperback 7.40636 3.13779 -2.83588
thorax 16.5151 1.94424 -3.13439
lowerneck -3.24817 -7.34411 3.67006
upperneck 21.2811 -12.9052 1.95871
head 6.98394 -6.41488 -0.929231
rclavicle 1.66979e-014 -1.90833e-014
rhumerus -1200.46 -170.018 1229.87
rradius 26.9766
rwrist 28.7649
rhand -23.6314 17.8928
rfingers 7.12502
rthumb 2.83334 -12.0682
lclavicle 1.66979e-014 -1.90833e-014
lhumerus -644.05 9.88704 -689.27
lradius 21.8017
lwrist -45.5814
lhand -28.3048 0.262859
lfingers 7.12502
lthumb -1.68029 30.236
rfemur -14.1938 -9.1238 13.1361
rtibia 27.702
rfoot -12.7564 12.3644
rtoes -16.9317
lfemur -12.8184 3.74609 -17.041
ltibia 28.116
lfoot -12.5245 -7.46444
ltoes -1.91682
45
root 0.0361456 19.2833 3.65507 -176.944 1.26308 179.876
lowerback -14.0517 1.90646 1.35487
upperback 7.06546 3.01915 -2.83946
thorax 16.2238 1.85793 -3.13017
lowerneck -2.34439 -7.6417 4.0365
upperneck 21.1499 -13.3816 1.85505
head 6.75602 -6.68526 -0.992628
rclavicle 2.18663e-015 -4.85035e-014
rhumerus -1201.11 -168.685 1232.23
rradius 27.7431
rwrist 28.9022
rhand -23.7098 17.4624
rfingers 7.12502
rthumb 2.75761 -12.4995
lclavicle 2.18663e-015 -4.85035e-014
lhumerus -644.811 11.9033 -691.608
lradius 22.1548
lwrist -47.0471
lhand -29.3407 0.5743
lfingers 7.12502
lthumb -2.68074 30.5372
rfemur -14.2407 -9.15192 13.2364
rtibia 27.7426
rfoot -12.8232 12.5482
rtoes -16.9614
lfemur -12.7985 3.4873 -16.9468
ltibia 28.1265
lfoot -12.7214 -7.1433
ltoes -1.83743
